<svg height="512pt" viewBox="-89 0 512 512.00266" width="512pt" xmlns="http://www.w3.org/2000/svg"><path d="m90.875 381.605469-41.769531 5.085937c-20.347657 2.476563-38.851563-12.011718-41.328125-32.359375-2.476563-20.34375 12.011718-38.847656 32.359375-41.324219 13.195312-1.609374 25.660156 3.980469 33.433593 13.617188l26.332032 32.828125c4.730468 5.894531 3.78125 14.511719-2.113282 19.242187-2.050781 1.640626-4.484374 2.605469-6.914062 2.910157zm0 0" fill="#b2b0bc"/><path d="m69.152344 376.664062c-20.34375 2.480469-38.847656-12.007812-41.324219-32.355468-1.457031-11.972656 2.960937-23.300782 10.988281-31.105469-19.648437 3.097656-33.460937 21.226563-31.039062 41.128906 2.476562 20.347657 20.980468 34.835938 41.328125 32.359375l41.769531-5.085937c2.429688-.304688 4.863281-1.265625 6.914062-2.910157 2.039063-1.636718 3.472657-3.746093 4.296876-6.039062zm0 0" fill="#938ea3"/><path d="m122.316406 284.777344-41.769531 5.085937c-20.347656 2.476563-38.851563-12.007812-41.328125-32.355469-2.476562-20.347656 12.007812-38.851562 32.355469-41.328124 13.199219-1.605469 25.660156 3.984374 33.4375 13.621093l26.328125 32.824219c4.730468 5.898438 3.785156 14.511719-2.113282 19.242188-2.046874 1.644531-4.480468 2.609374-6.910156 2.910156zm0 0" fill="#b2b0bc"/><path d="m100.59375 279.839844c-20.347656 2.476562-38.847656-12.011719-41.324219-32.355469-1.460937-11.972656 2.960938-23.304687 10.988281-31.109375-19.648437 3.101562-33.460937 21.230469-31.039062 41.132812 2.476562 20.347657 20.980469 34.832032 41.328125 32.355469l41.769531-5.085937c2.429688-.300782 4.863282-1.265625 6.910156-2.910156 2.042969-1.636719 3.476563-3.742188 4.300782-6.035157zm0 0" fill="#938ea3"/><path d="m154.429688 186.644531-41.773438 5.082031c-20.347656 2.480469-38.847656-12.007812-41.324219-32.355468-2.480469-20.347656 12.007813-38.847656 32.355469-41.324219 13.199219-1.609375 25.660156 3.980469 33.4375 13.617187l26.328125 32.824219c4.730469 5.898438 3.785156 14.515625-2.113281 19.246094-2.046875 1.640625-4.480469 2.605469-6.910156 2.910156zm0 0" fill="#b2b0bc"/><path d="m132.707031 181.703125c-20.347656 2.480469-38.847656-12.007813-41.324219-32.355469-1.460937-11.972656 2.960938-23.300781 10.988282-31.105468-19.648438 3.097656-33.460938 21.226562-31.039063 41.128906 2.476563 20.347656 20.980469 34.835937 41.328125 32.359375l41.769532-5.085938c2.429687-.304687 4.863281-1.265625 6.910156-2.910156 2.042968-1.636719 3.476562-3.746094 4.300781-6.039063zm0 0" fill="#938ea3"/><path d="m191.246094 90.375-41.769532 5.082031c-20.347656 2.480469-38.851562-12.007812-41.328124-32.355469-2.476563-20.347656 12.011718-38.847656 32.355468-41.328124 13.199219-1.605469 25.660156 3.984374 33.4375 13.621093l26.332032 32.824219c4.730468 5.898438 3.78125 14.511719-2.113282 19.246094-2.050781 1.640625-4.484375 2.605468-6.914062 2.910156zm0 0" fill="#b2b0bc"/><path d="m169.527344 85.433594c-20.347656 2.476562-38.851563-12.007813-41.328125-32.355469-1.457031-11.972656 2.960937-23.300781 10.988281-31.109375-19.648438 3.101562-33.460938 21.230469-31.039062 41.132812 2.480468 20.347657 20.980468 34.835938 41.328124 32.355469l41.773438-5.082031c2.425781-.304688 4.859375-1.269531 6.910156-2.910156 2.039063-1.640625 3.472656-3.746094 4.296875-6.039063zm0 0" fill="#938ea3"/><path d="m323.957031 350.242188-55.257812-184.546876c-2.367188-7.902343 1-16.425781 8.175781-20.488281 22.425781-12.707031 37.558594-36.789062 37.546875-64.40625-.011719-40.203125-32.722656-73.367187-72.921875-73.90625-.808594-.011719-1.613281-.011719-2.417969.003907-30.050781.558593-56.273437 20.617187-65.769531 49.136718l-117.320312 352.300782c-2.886719 8.667968-1.601563 18.183593 3.480468 25.773437l47.523438 71.003906h144.902344c7.179687-43.738281 39.695312-84.902343 61.113281-107.953125 11.703125-12.601562 15.875-30.441406 10.945312-46.917968zm0 0" fill="#f5c956"/><path d="m86.066406 408.335938 117.320313-352.300782c8.046875-24.164062 28.105469-42.25 52.324219-47.546875-4.601563-.976562-9.347657-1.527343-14.210938-1.59375-.808594-.011719-1.613281-.007812-2.417969.007813-30.050781.558594-56.269531 20.617187-65.765625 49.132812l-117.324218 352.300782c-2.886719 8.667968-1.601563 18.183593 3.480468 25.773437l47.523438 71.003906h30.074218l-47.523437-71.003906c-5.082031-7.589844-6.367187-17.105469-3.480469-25.773437zm0 0" fill="#f7ac3e"/><g fill="#938ea3"><path d="m228.507812 84.257812c0 9.503907-7.703124 17.207032-17.207031 17.207032-9.507812 0-17.210937-7.703125-17.210937-17.207032 0-9.507812 7.703125-17.210937 17.210937-17.210937 9.503907 0 17.207031 7.703125 17.207031 17.210937zm0 0"/><path d="m194.089844 181.582031c0 9.503907-7.703125 17.207031-17.210938 17.207031-9.503906 0-17.207031-7.703124-17.207031-17.207031 0-9.503906 7.703125-17.210937 17.207031-17.210937 9.507813 0 17.210938 7.707031 17.210938 17.210937zm0 0"/><path d="m160.664062 279.3125c0 9.503906-7.707031 17.207031-17.210937 17.207031s-17.207031-7.703125-17.207031-17.207031c0-9.507812 7.703125-17.210938 17.207031-17.210938s17.210937 7.703126 17.210937 17.210938zm0 0"/><path d="m130.214844 377.597656c0 9.503906-7.703125 17.210938-17.207032 17.210938-9.507812 0-17.210937-7.707032-17.210937-17.210938s7.703125-17.207031 17.210937-17.207031c9.503907 0 17.207032 7.703125 17.207032 17.207031zm0 0"/></g><path d="m236.03125 83.625c0-13.636719-11.089844-24.726562-24.726562-24.726562-13.636719 0-24.726563 11.089843-24.726563 24.726562 0 13.632812 11.089844 24.726562 24.726563 24.726562 13.636718 0 24.726562-11.09375 24.726562-24.726562zm-34.417969 0c0-5.34375 4.347657-9.691406 9.691407-9.691406s9.691406 4.347656 9.691406 9.691406-4.347656 9.691406-9.691406 9.691406-9.691407-4.347656-9.691407-9.691406zm0 0"/><path d="m201.613281 180.949219c0-13.632813-11.089843-24.726563-24.726562-24.726563s-24.726563 11.09375-24.726563 24.726563c0 13.636719 11.089844 24.730469 24.726563 24.730469s24.726562-11.09375 24.726562-24.730469zm-34.417969 0c0-5.34375 4.347657-9.691407 9.691407-9.691407s9.691406 4.347657 9.691406 9.691407-4.347656 9.691406-9.691406 9.691406-9.691407-4.347656-9.691407-9.691406zm0 0"/><path d="m168.1875 278.679688c0-13.636719-11.09375-24.726563-24.726562-24.726563-13.636719 0-24.730469 11.089844-24.730469 24.726563 0 13.636718 11.09375 24.726562 24.730469 24.726562 13.632812 0 24.726562-11.09375 24.726562-24.726562zm-34.417969 0c0-5.34375 4.347657-9.691407 9.691407-9.691407s9.691406 4.347657 9.691406 9.691407-4.347656 9.691406-9.691406 9.691406-9.691407-4.347656-9.691407-9.691406zm0 0"/><path d="m88.285156 376.96875c0 13.632812 11.089844 24.726562 24.726563 24.726562 13.632812 0 24.726562-11.09375 24.726562-24.726562 0-13.636719-11.09375-24.730469-24.726562-24.730469-13.636719 0-24.726563 11.09375-24.726563 24.730469zm34.417969 0c0 5.34375-4.347656 9.6875-9.691406 9.6875s-9.691407-4.34375-9.691407-9.6875 4.347657-9.691406 9.691407-9.691406 9.691406 4.347656 9.691406 9.691406zm0 0"/><path d="m108.191406 109.621094c-26.378906 0-47.503906 23.867187-44.316406 50.03125 2.722656 22.367187 21.75 39.238281 44.257812 39.238281 3.28125 0 6.515626-.460937 9.765626-.855469l-8.300782 24.925782c-8.515625-9.679688-20.617187-15.203126-33.515625-15.203126-26.386719 0-47.511719 23.832032-44.320312 50.027344 2.722656 22.371094 21.75 39.242188 44.261719 39.242188 1.804687 0 3.632812-.109375 5.4375-.328125l3.730468-.457031-7.621094 22.886718c-8.480468-9.273437-20.324218-14.542968-32.929687-14.542968-26.386719 0-47.507813 23.828124-44.320313 50.027343 2.722657 22.367188 21.75 39.242188 44.261719 39.242188 1.804688 0 3.632813-.113281 5.4375-.332031l2.894531-.351563-4.050781 12.160156c-3.59375 10.789063-1.960937 22.878907 4.363281 32.332031l47.527344 71.003907c1.394532 2.082031 3.738282 3.335937 6.246094 3.335937h144.902344c3.683594 0 6.824218-2.667968 7.417968-6.300781 7-42.621094 40.097657-83.488281 59.203126-104.054687 13.464843-14.492188 18.308593-35.257813 12.640624-54.191407l-11.628906-38.832031c-1.191406-3.976562-5.378906-6.238281-9.359375-5.046875-3.976562 1.191406-6.234375 5.382813-5.042969 9.359375l11.625 38.832031c4.144532 13.847657.601563 29.039063-9.25 39.644531-23.566406 25.367188-52.824218 63.785157-61.828124 105.550782h-134.664063l-45.289063-67.667969c-3.816406-5.699219-4.761718-12.703125-2.597656-19.214844 0 0 117.324219-352.300781 117.328125-352.308593 5.648438-20.710938 25.320313-37.496094 45.78125-42.335938 4.042969-.957031 6.542969-5.007812 5.585938-9.046875-.957031-4.042969-5.007813-6.542969-9.046875-5.585937-17.421875 4.121093-32.828125 14.332031-43.753906 28.328124-8.539063-10.035156-20.859376-15.777343-34.011719-15.777343-13.652344 0-26.742188 6.371093-35.160157 17.117187-7.347656 9.386719-10.601562 21.074219-9.160156 32.90625 2.890625 23.746094 25.320313 41.523438 49.070313 38.96875l-7.644531 22.957032c-8.535157-9.976563-20.816407-15.683594-33.925782-15.683594zm3.5625 74.011718c-16.011718 1.953126-31.003906-9.789062-32.953125-25.800781-2.117187-17.367187 11.90625-33.171875 29.390625-33.171875 8.984375 0 17.398438 4.042969 23.074219 11.078125l5.210937 6.5-13.324218 40.007813zm-63.546875 195.019532c-16.0625 1.355468-30.964843-9.460938-32.960937-25.859375-1.972656-16.199219 9.601562-30.980469 25.800781-32.957031 10.898437-1.324219 19.257813 3.457031 26.664063 10.863281l4.246093 5.289062-13.785156 41.390625c-3.320313.40625-6.632813.992188-9.964844 1.273438zm42.242188-98.199219-10.808594 1.316406c-16.007813 1.949219-31.003906-9.789062-32.953125-25.800781-1.972656-16.199219 9.601562-30.984375 25.800781-32.957031 10.890625-1.324219 19.257813 3.457031 26.664063 10.863281l4.8125 5.996094zm64.5625-193.875c-3.335938.40625-6.695313 1.007813-10.0625 1.007813-14.914063-.003907-27.523438-11.191407-29.332031-26.023438-2.113282-17.378906 11.894531-33.175781 29.394531-33.175781 8.980469 0 17.394531 4.046875 23.070312 11.082031l2.457031 3.0625c-.089843.175781-.167968.359375-.257812.535156-1.578125 3.226563-2.960938 6.554688-4.09375 9.960938 0 0-11.175781 33.550781-11.175781 33.550781zm0 0"/><path d="m280.585938 151.117188c25.519531-14.457032 41.371093-41.644532 41.363281-70.945313-.011719-39.179687-28.019531-72.839844-66.59375-80.042969-4.082031-.761718-8.007813 1.929688-8.769531 6.011719-.761719 4.082031 1.929687 8.007813 6.011718 8.769531 31.460938 5.875 54.304688 33.320313 54.3125 65.265625.007813 23.894531-12.917968 46.066407-33.734375 57.859375-10.277343 5.820313-15.074219 17.820313-11.671875 29.183594 0 0 35.035156 117.015625 35.054688 117.078125 1.167968 3.90625 5.453125 6.214844 9.355468 5.042969 3.980469-1.1875 6.238282-5.378906 5.046876-9.355469l-35.054688-117.078125c-1.375-4.601562.546875-9.449219 4.679688-11.789062zm0 0"/></svg>