<svg id="Layer_1" enable-background="new 0 0 512.267 512.267" height="512" viewBox="0 0 512.267 512.267" width="512" xmlns="http://www.w3.org/2000/svg"><g><g><path d="m444.833 117.873-52.11-.02-325.02-.14c36.73-17.57 79.17-35.99 127.27-35.99 5.38-14.88 16.02-27.23 29.69-34.81 9.32-5.16 20.03-8.1 31.44-8.1 28.13 0 52.09 17.89 61.12 42.91 48.88 0 90.81 18.5 127.61 36.15z" fill="#f9ef63"/><path d="m444.833 117.873-52.11-.02c-32.57-14.82-69.04-28.13-110.5-28.13-8.65-23.96-30.98-41.38-57.56-42.81 9.32-5.16 20.03-8.1 31.44-8.1 28.13 0 52.09 17.89 61.12 42.91 48.88 0 90.81 18.5 127.61 36.15z" fill="#f4dd45"/></g><g><path d="m444.833 147.339-52.11.02-325.02.14c36.73 17.57 79.17 35.99 127.27 35.99 5.38 14.88 16.02 27.23 29.69 34.81 9.32 5.16 20.03 8.1 31.44 8.1 28.13 0 52.09-17.89 61.12-42.91 48.88 0 90.81-18.5 127.61-36.15z" fill="#f9ef63"/><path d="m444.833 147.339-52.11.02c-32.57 14.82-69.04 28.13-110.5 28.13-8.65 23.96-30.98 41.38-57.56 42.81 9.32 5.16 20.03 8.1 31.44 8.1 28.13 0 52.09-17.89 61.12-42.91 48.88 0 90.81-18.5 127.61-36.15z" fill="#f4dd45"/></g><g><path d="m239.32 225.085h33.627v146.19h-33.627z" fill="#e58e53"/><path d="m256.299 225.085h16.648v146.19h-16.648z" fill="#dd5824"/><path d="m272.943 24.313v16.81h-33.62v-16.81c0-6.23 3.38-11.66 8.4-14.56 2.47-1.43 5.35-2.25 8.41-2.25 9.29 0 16.81 7.52 16.81 16.81z" fill="#e58e53"/><path d="m272.943 24.313v16.81h-16.81v-16.81c0-6.23-3.38-11.66-8.41-14.56 2.47-1.43 5.35-2.25 8.41-2.25 9.29 0 16.81 7.52 16.81 16.81z" fill="#dd5824"/></g><path d="m292.903 404.753c0 20.23-16.4 36.63-36.64 36.63-4.91 0-9.59-.97-13.87-2.72-13.36-5.47-22.76-18.59-22.76-33.91s9.4-28.45 22.76-33.92c4.28-1.75 8.96-2.72 13.87-2.72 20.24 0 36.64 16.41 36.64 36.64z" fill="#69676d"/><path d="m292.903 404.753c0 20.23-16.4 36.63-36.64 36.63-4.91 0-9.59-.97-13.87-2.72 13.36-5.47 22.76-18.59 22.76-33.91s-9.4-28.45-22.76-33.92c4.28-1.75 8.96-2.72 13.87-2.72 20.24 0 36.64 16.41 36.64 36.64z" fill="#504e54"/></g><g><path d="m444.832 125.369h.003c3.501 0 6.536-2.422 7.313-5.835.777-3.415-.912-6.913-4.069-8.428-37.586-18.025-78.198-35.639-125.768-36.823-8.152-18.272-23.476-32.143-41.863-38.732v-11.238c-.001-13.406-10.908-24.313-24.315-24.313s-24.313 10.907-24.313 24.313v11.215c-18.417 6.58-33.768 20.464-41.929 38.757-47.481 1.235-89.55 19.501-125.427 36.659-3.159 1.511-4.853 5.008-4.078 8.423.774 3.416 3.809 5.842 7.312 5.843l88.952.036h.003c4.141 0 7.498-3.356 7.5-7.497.002-4.142-3.354-7.501-7.497-7.503l-54.131-.022c28.061-11.613 59.097-21.005 92.451-21.005 3.16 0 5.981-1.98 7.055-4.953 8.195-22.698 29.924-37.949 54.07-37.949s45.875 15.251 54.07 37.949c1.073 2.973 3.895 4.953 7.055 4.953 33.853 0 64.413 9.223 92.917 21.134l-218.282-.099h-.003c-4.141 0-7.498 3.355-7.5 7.497s3.354 7.501 7.497 7.503l56.912.026v14.639l-181.197-.076h-.003c-3.501 0-6.536 2.422-7.313 5.836s.912 6.912 4.069 8.427c37.587 18.025 78.2 35.64 125.767 36.824 8.132 18.227 23.402 32.076 41.729 38.684v138.41c-11.859 7.92-19.686 21.426-19.686 36.726 0 6.491 1.409 12.66 3.937 18.216l-57.656 77.217c-2.478 3.319-1.797 8.019 1.522 10.497 1.347 1.005 2.921 1.49 4.481 1.49 2.286 0 4.543-1.04 6.016-3.013l54.656-73.199c6.311 6.305 14.516 10.713 23.677 12.287v56.521c0 4.143 3.357 7.5 7.5 7.5s7.5-3.357 7.5-7.5v-56.521c9.162-1.575 17.369-5.984 23.68-12.29l54.7 73.204c1.473 1.972 3.729 3.011 6.014 3.011 1.562 0 3.137-.485 4.483-1.492 3.318-2.479 3.998-7.179 1.519-10.497l-57.698-77.217c2.527-5.556 3.936-11.723 3.936-18.214 0-15.415-7.945-29.009-19.954-36.904v-29.909c0-4.143-3.357-7.5-7.5-7.5s-7.5 3.357-7.5 7.5v23.642c-2.962-.629-6.033-.961-9.18-.961-3.242 0-6.403.351-9.447 1.018v-128.367c3.115.413 6.281.626 9.479.626 3.085 0 6.139-.198 9.147-.583v69.647c0 4.143 3.357 7.5 7.5 7.5s7.5-3.357 7.5-7.5v-73.229c18.475-6.56 33.882-20.467 42.063-38.805 47.48-1.235 89.55-19.501 125.427-36.659 3.16-1.511 4.854-5.007 4.079-8.423-.773-3.416-3.809-5.842-7.312-5.843l-180.937-.076v-14.638zm-198.012-93.452v-7.604c0-5.136 4.178-9.313 9.313-9.313s9.313 4.178 9.313 9.313v7.612c-3.072-.401-6.193-.608-9.346-.608-3.13 0-6.229.204-9.28.6zm38.581 372.833c0 16.064-13.069 29.134-29.134 29.134-16.063 0-29.133-13.069-29.133-29.134 0-16.063 13.069-29.133 29.133-29.133 16.065 0 29.134 13.07 29.134 29.133zm32.023-228.757c-3.16 0-5.981 1.98-7.055 4.953-8.195 22.698-29.925 37.949-54.07 37.949s-45.875-15.251-54.07-37.949c-1.073-2.973-3.895-4.953-7.055-4.953-33.854 0-64.412-9.223-92.919-21.136l307.621.13c-28.06 11.615-59.098 21.006-92.452 21.006z"/><path d="m464.159 78.573c-26.685-12.797-58.107-27.09-93.375-34.726-4.055-.881-8.041 1.695-8.917 5.743-.877 4.048 1.694 8.041 5.743 8.917 33.678 7.291 64.146 21.162 90.063 33.591 1.046.502 2.15.739 3.238.739 2.795 0 5.478-1.57 6.768-4.259 1.79-3.733.215-8.214-3.52-10.005z"/><path d="m172.147 227.098c3.816 0 7.081-2.901 7.456-6.778.399-4.123-2.619-7.789-6.742-8.188-45.085-4.365-83.146-21.175-118.267-38.019-3.732-1.791-8.214-.215-10.006 3.52-1.791 3.734-.216 8.215 3.52 10.006 36.333 17.425 75.781 34.822 123.308 39.423.246.024.489.036.731.036z"/></g></svg>