<svg id="Capa_1" enable-background="new 0 0 510.238 510.238" height="512" viewBox="0 0 510.238 510.238" width="512" xmlns="http://www.w3.org/2000/svg"><g><g><g id="XMLID_157_"><g><path d="m317.246 360.572v82.66c0 12.88-10.44 23.33-23.32 23.33-6.45 0-12.28-2.61-16.5-6.83-4.22-4.23-6.83-10.06-6.83-16.5v-224.67c0-12.88 10.44-23.33 23.33-23.33 6.44 0 12.27 2.61 16.49 6.84 4.22 4.22 6.83 10.05 6.83 16.49v9z" fill="#b5acb6"/></g></g><path d="m272.741 373.165c6.562-1.619 12.795-4.482 18.343-8.478l6.335-4.561c1.386-.998 3.051-1.536 4.759-1.537l82.667-.075c2.912-.003 5.46 1.93 6.265 4.728 6.576 22.856 27.633 39.579 52.605 39.579h4.277c30.235 0 54.746-24.51 54.746-54.746v-4.77c0-7.429-1.067-14.82-3.169-21.946l-4.432-15.022c-10.727-36.361-11.623-74.916-2.599-111.736 4.331-17.67 5.671-35.94 3.964-54.052l-4.871-51.687c0-19.898-16.818-35.867-37.014-34.469-16.977 1.175-30.75 14.885-31.999 31.857-.748 10.167 2.911 19.482 9.258 26.245 2.412 2.57 3.172 6.275 1.852 9.543l-5.789 14.338c-5.574 13.807-9.585 37.314-10.516 52.175-.134 2.133-1.492 4.011-3.503 4.796l-14.743 5.754c-13.714 5.352-24.428 16.395-29.365 30.264h-99.221-131.602v142.606z" fill="#ffbe8a"/><path d="m466.14 365.328h-4.277c-21.333 0-39.808-12.204-48.84-30.01-4.501-8.874-13.79-14.294-23.74-14.285l-61.152.056c-6.784.006-13.394 2.142-18.899 6.105-5.549 3.995-11.781 6.859-18.343 8.478l-117.346-1.047v37.658l99.202.885c6.562-1.619 12.795-4.482 18.344-8.478l6.335-4.561c1.386-.998 3.051-1.536 4.759-1.537l82.667-.075c2.912-.003 5.46 1.93 6.265 4.729 6.577 22.856 27.633 39.579 52.605 39.579h4.277c29.131 0 52.986-22.767 54.641-51.454-9.688 8.669-22.476 13.957-36.498 13.957z" fill="#f5aa72"/><g><path d="m7.496 446.794c0 10.918 7.899 19.768 17.644 19.768h187.275 33.088c9.744 0 17.644-8.85 17.644-19.768v-231.794c0-10.918-7.899-19.768-17.644-19.768h-33.088-187.275c-9.744 0-17.644 8.85-17.644 19.768z" fill="#f3f0f3"/></g><path d="m245.503 403.201h-33.088-187.275c-9.745 0-17.644-8.85-17.644-19.768v63.361c0 10.918 7.899 19.768 17.644 19.768h187.275 33.088c9.744 0 17.644-8.85 17.644-19.768v-63.361c0 10.918-7.899 19.768-17.644 19.768z" fill="#e2dee2"/><g><g id="XMLID_158_"><g><path d="m237.086 195.232h56.84c-12.89 0-23.33 10.45-23.33 23.33v224.67c0 6.44 2.61 12.27 6.83 16.5 4.22 4.22 10.05 6.83 16.5 6.83h-56.84c-12.88 0-23.33-10.45-23.33-23.33v-224.67c0-12.88 10.45-23.33 23.33-23.33z" fill="#e2dee2"/></g></g></g><path d="m277.426 459.732c-4.22-4.23-6.83-10.06-6.83-16.5v-20.103h-33.51c-11.724 0-21.431-8.659-23.08-19.927h-.25v40.031c0 12.88 10.45 23.33 23.33 23.33h56.84c-6.45-.001-12.28-2.611-16.5-6.831z" fill="#cbc4cb"/></g><g><path d="m506.762 319.238-4.431-15.023c-10.34-35.05-11.207-72.337-2.509-107.829 4.541-18.527 5.937-37.55 4.146-56.541l-4.839-51.354c-.102-11.483-4.961-22.538-13.366-30.381-8.614-8.04-19.87-12.018-31.664-11.2-20.69 1.432-37.439 18.107-38.96 38.789-.877 11.913 3.125 23.252 11.27 31.929.437.465.577 1.079.366 1.601l-5.79 14.339c-5.709 14.142-9.844 37.637-10.961 53.249l-13.572 5.297c-14.068 5.491-25.372 16.179-31.666 29.751h-40.035v-3.3c0-16.999-13.83-30.829-30.829-30.829h-286.422c-4.142 0-7.5 3.358-7.5 7.5s3.358 7.5 7.5 7.5h203.146c-2.782 4.63-4.386 10.045-4.386 15.829v145.907h-58.86c-4.142 0-7.5 3.358-7.5 7.5s3.358 7.5 7.5 7.5h58.859v21.127c0 4.142 3.358 7.5 7.5 7.5s7.5-3.358 7.5-7.5v-21.127h8.854c4.142 0 7.5-3.358 7.5-7.5s-3.358-7.5-7.5-7.5h-8.854v-145.908c0-8.728 7.101-15.829 15.829-15.829h30.391c-2.782 4.63-4.386 10.045-4.386 15.829v45.085c0 4.142 3.357 7.5 7.5 7.5s7.5-3.358 7.5-7.5v-26.785h91.722c3.173 0 6.002-1.996 7.065-4.985 4.21-11.828 13.331-21.229 25.025-25.792l14.743-5.754c4.703-1.835 7.945-6.276 8.262-11.314.916-14.608 4.901-37.243 9.984-49.835l5.79-14.339c2.388-5.917 1.077-12.78-3.339-17.483-5.238-5.581-7.812-12.883-7.247-20.563.978-13.289 11.74-24.004 25.036-24.925 7.617-.523 14.854 2.031 20.396 7.202 5.547 5.177 8.602 12.203 8.602 19.785 0 .235.011.47.033.704l4.87 51.688c1.632 17.319.36 34.667-3.781 51.563-9.329 38.063-8.399 78.053 2.69 115.643l4.431 15.023c1.9 6.439 2.863 13.108 2.863 19.823v4.771c0 26.051-21.194 47.245-47.245 47.245h-4.277c-20.943 0-39.611-14.044-45.397-34.152-1.721-5.981-7.257-10.155-13.468-10.155-.004 0-.008 0-.012 0l-16.36.015c-4.143.004-7.497 3.365-7.493 7.507.004 4.14 3.361 7.493 7.5 7.493h.007l15.616-.015c7.853 26.125 32.258 44.307 59.607 44.307h4.277c34.322 0 62.245-27.923 62.245-62.245v-4.771c0-8.152-1.17-16.25-3.476-24.067zm-228.669-100.674c0-8.728 7.101-15.829 15.829-15.829s15.829 7.101 15.829 15.829v3.3h-31.658z"/><path d="m336.522 351.058c-.002 0-.005 0-.007 0l-34.345.031c-3.298.003-6.456 1.023-9.135 2.951l-6.333 4.561c-2.703 1.946-5.586 3.565-8.61 4.869v-67.857c0-4.142-3.357-7.5-7.5-7.5s-7.5 3.358-7.5 7.5v147.62c0 5.784 1.604 11.199 4.386 15.829h-30.391c-8.728 0-15.828-7.101-15.828-15.829v-10.671c0-4.142-3.358-7.5-7.5-7.5s-7.5 3.358-7.5 7.5v10.671c0 5.784 1.604 11.199 4.386 15.829h-203.145c-4.142 0-7.5 3.358-7.5 7.5s3.358 7.5 7.5 7.5h286.422c16.999 0 30.829-13.83 30.829-30.829v-77.164l11.778-.011c4.143-.004 7.497-3.365 7.493-7.507-.003-4.14-3.36-7.493-7.5-7.493zm-26.771 92.174c0 8.728-7.101 15.829-15.829 15.829s-15.829-7.101-15.829-15.829v-63.791c6.22-1.938 12.054-4.837 17.375-8.668l6.332-4.56c.113-.082.246-.125.385-.125l7.566-.007z"/><path d="m363.6 282.536h5.25c5.289 0 9.593 4.303 9.593 9.592v18.154c0 4.142 3.357 7.5 7.5 7.5s7.5-3.358 7.5-7.5v-18.154c0-13.56-11.032-24.592-24.593-24.592h-5.25c-13.56 0-24.592 11.032-24.592 24.592 0 4.142 3.357 7.5 7.5 7.5s7.5-3.358 7.5-7.5c0-5.289 4.303-9.592 9.592-9.592z"/><path d="m239.067 116.53h101.473c4.143 0 7.5-3.358 7.5-7.5s-3.357-7.5-7.5-7.5h-101.473c-4.142 0-7.5 3.358-7.5 7.5s3.358 7.5 7.5 7.5z"/><path d="m197.873 116.53h10.659c4.142 0 7.5-3.358 7.5-7.5s-3.358-7.5-7.5-7.5h-10.659c-4.142 0-7.5 3.358-7.5 7.5s3.358 7.5 7.5 7.5z"/><path d="m304.299 51.177h81.644c4.143 0 7.5-3.358 7.5-7.5s-3.357-7.5-7.5-7.5h-81.644c-4.143 0-7.5 3.358-7.5 7.5s3.357 7.5 7.5 7.5z"/><path d="m263.105 51.177h10.659c4.143 0 7.5-3.358 7.5-7.5s-3.357-7.5-7.5-7.5h-10.659c-4.143 0-7.5 3.358-7.5 7.5s3.358 7.5 7.5 7.5z"/><path d="m429.222 432.062h-69.069c-4.143 0-7.5 3.358-7.5 7.5s3.357 7.5 7.5 7.5h69.069c4.143 0 7.5-3.358 7.5-7.5s-3.358-7.5-7.5-7.5z"/><path d="m466.757 432.062h-9.807c-4.143 0-7.5 3.358-7.5 7.5s3.357 7.5 7.5 7.5h9.807c4.143 0 7.5-3.358 7.5-7.5s-3.358-7.5-7.5-7.5z"/><path d="m116.966 379.471c4.142 0 7.5-3.358 7.5-7.5s-3.358-7.5-7.5-7.5h-8.954c-4.142 0-7.5 3.358-7.5 7.5s3.358 7.5 7.5 7.5z"/></g></g></svg>