<svg height="512" viewBox="0 0 512 512" width="512" xmlns="http://www.w3.org/2000/svg"><g id="filled_outline" data-name="filled outline"><path d="m280 480c0 4.418-10.745 8-24 8s-24-3.582-24-8v-64h48z" fill="#4a4d4f"/><path d="m232 416v32a55.721 55.721 0 0 1 10.055-32z" fill="#37383a"/><path d="m232 480c0 4.418 10.745 8 24 8s24-3.582 24-8v-28.5c0 4.418-10.745 8-24 8s-24-3.582-24-8z" fill="#888c8e"/><path d="m280 416c0 4.418-10.745 8-24 8s-24-3.582-24-8v-248h48z" fill="#888c8e"/><path d="m238.648 421.523a56.037 56.037 0 0 1 41.352-28.945v-224.578h-48v248c0 2.143 2.532 4.087 6.648 5.523z" fill="#6d7072"/><ellipse cx="256" cy="312" fill="#f2b016" rx="232" ry="56"/><path d="m48 327.367c0-30.928 103.87-56 232-56 87.193 0 163.138 11.613 202.774 28.779-22.534-25.234-115.496-44.146-226.774-44.146-128.13 0-232 25.072-232 56 0 9.881 10.617 19.163 29.226 27.222-3.412-3.822-5.226-7.787-5.226-11.855z" fill="#fccd31"/><ellipse cx="256" cy="312" fill="#c6975d" rx="72" ry="24"/><path d="m272 328c0 4.418-7.163 8-16 8s-16-3.582-16-8v-96h32z" fill="#4a4d4f"/><ellipse cx="256" cy="216" fill="#fccd31" rx="232" ry="56"/><path d="m417.084 175.7c14.685 7.352 22.916 15.594 22.916 24.3 0 30.928-103.87 56-232 56-62.575 0-119.355-5.982-161.085-15.7 37.485 18.756 117.022 31.7 209.085 31.7 128.13 0 232-25.072 232-56 0-15.824-27.2-30.112-70.916-40.3z" fill="#f2b016"/><path d="m304 88h56v32h-56z" fill="#888c8e"/><path d="m344 88h-40v12.132a71.663 71.663 0 0 1 40-12.132z" fill="#6d7072"/><path d="m360 88h-16a72.155 72.155 0 0 1 16 1.807z" fill="#6d7072"/><path d="m272 88h40v32h-40z" fill="#4a4d4f"/><path d="m312 95.5v-7.5h-40v32h12.132a72.317 72.317 0 0 1 27.868-24.5z" fill="#37383a"/><path d="m328 192c0 13.255-32.235 24-72 24s-72-10.745-72-24 32.235-48 72-48 72 34.745 72 48z" fill="#e8b878"/><path d="m312.365 167.728a159.289 159.289 0 0 1 -96.365 32.272 160.784 160.784 0 0 1 -30.346-2.887c7.032 10.798 35.846 18.887 70.346 18.887 39.765 0 72-10.745 72-24 0-5.643-5.857-15.179-15.635-24.272z" fill="#c6975d"/><path d="m280 152v-80l-8.845-4.422a33.883 33.883 0 0 0 -15.155-3.578 33.883 33.883 0 0 0 -15.155 3.578l-8.845 4.422v80c0 4.418 10.745 8 24 8s24-3.582 24-8z" fill="#888c8e"/><path d="m279.417 112h.583v-40c0 4.418-10.745 8-24 8s-24-3.582-24-8v8.516a64 64 0 0 1 47.417 31.484z" fill="#6d7072"/><path d="m16 312c0 19.571 24.922 35.51 74.074 47.375 36.755 8.871 83.449 14.44 133.926 16.1v104.525c0 7.735 8.406 16 32 16s32-8.265 32-16v-104.526c50.477-1.659 97.171-7.228 133.926-16.1 49.152-11.864 74.074-27.803 74.074-47.374 0-24.089-38.512-39.069-76.723-48 .885-.207 1.775-.413 2.649-.624 49.152-11.866 74.074-27.805 74.074-47.376 0-17.272-19.625-31.8-58.332-43.183-33.375-9.813-79.533-16.7-130.246-19.445a101.29 101.29 0 0 0 -19.422-10.752v-14.62h48v16h16v-16h8a8 8 0 0 0 8-8v-32a8 8 0 0 0 -8-8h-8v-16h-16v16h-48v-8a8 8 0 0 0 -4.422-7.155l-8.844-4.422a41.991 41.991 0 0 0 -10.734-3.631v-40.792h-16v40.792a41.963 41.963 0 0 0 -10.732 3.631l-8.846 4.422a8 8 0 0 0 -4.422 7.155v70.62a101.29 101.29 0 0 0 -19.422 10.752c-50.713 2.749-96.871 9.632-130.246 19.445-38.707 11.383-58.332 25.911-58.332 43.183 0 19.571 24.922 35.51 74.074 47.375.874.211 1.764.417 2.649.624-38.211 8.932-76.723 23.912-76.723 48.001zm256 133.485c-2.51 1.115-8.211 2.515-16 2.515s-13.49-1.4-16-2.515v-15.144a77.984 77.984 0 0 0 32 0zm-16 34.515c-7.781 0-13.486-1.4-16-2.513v-15.146a77.984 77.984 0 0 0 32 0v15.146c-2.514 1.113-8.219 2.513-16 2.513zm16-66.513c-2.514 1.113-8.219 2.513-16 2.513s-13.486-1.4-16-2.513v-37.62q7.954.129 16 .133t16-.133zm80-301.487h-32v-16h32zm-48-16v16h-16v-16zm-64-19.056 4.423-2.211a25.889 25.889 0 0 1 23.155 0l4.422 2.211v72.543c-2.514 1.113-8.219 2.513-16 2.513s-13.486-1.4-16-2.513zm16 91.056c16.392 0 25.448-3.99 29.452-9.02 22.037 10.367 34.548 28.341 34.548 33.02 0 .687-2.715 5.08-15.618 9.381-12.805 4.268-29.982 6.619-48.382 6.619s-35.577-2.351-48.382-6.619c-12.903-4.301-15.618-8.694-15.618-9.381 0-4.679 12.511-22.653 34.548-33.02 4.004 5.03 13.06 9.02 29.452 9.02zm-209.8 62.85c-9.025-5.15-14.2-10.562-14.2-14.85 0-6.484 12.269-17.665 46.845-27.832 27.915-8.209 65.314-14.305 107-17.534-6.218 7.693-9.845 15.343-9.845 21.366 0 21.986 41.47 32 80 32s80-10.014 80-32c0-6.023-3.627-13.673-9.845-21.366 41.686 3.229 79.085 9.325 107 17.534 34.576 10.167 46.845 21.348 46.845 27.832 0 4.288-5.175 9.7-14.2 14.85-10.876 6.206-27.346 12.075-47.632 16.971-43.219 10.433-100.813 16.179-162.168 16.179s-118.949-5.746-162.171-16.179c-20.286-4.896-36.756-10.765-47.629-16.971zm233.8 66.577c11.354 1.4 21.437 3.784 28.974 6.892 9.109 3.757 11.026 7.165 11.026 7.681 0 .687-2.715 5.08-15.618 9.381a127.4 127.4 0 0 1 -24.382 5.2zm-16 30.417c-2.635.1-5.3.156-8 .156s-5.365-.057-8-.156v-47.88q3.99.031 8 .036t8-.036zm-32-1.262a127.4 127.4 0 0 1 -24.382-5.2c-12.903-4.302-15.618-8.695-15.618-9.382 0-.516 1.917-3.924 11.026-7.681 7.537-3.108 17.62-5.491 28.974-6.892zm-173.962-35.165c18.809-7.862 45.9-14.536 78.384-19.324a821.23 821.23 0 0 0 95.578 7.613v1.614c-28.294 3.2-56 12.649-56 30.68 0 21.986 41.47 32 80 32s80-10.014 80-32c0-18.031-27.706-27.476-56-30.68v-1.614a821.23 821.23 0 0 0 95.578-7.613c32.484 4.788 59.575 11.462 78.384 19.324 16.304 6.814 26.038 14.509 26.038 20.583 0 4.288-5.175 9.7-14.2 14.85-10.876 6.207-27.346 12.075-47.632 16.971-43.219 10.433-100.813 16.179-162.168 16.179s-118.949-5.746-162.171-16.179c-20.286-4.9-36.756-10.764-47.632-16.971-9.022-5.15-14.197-10.562-14.197-14.85 0-6.074 9.734-13.769 26.038-20.583z"/></g></svg>