<svg id="Capa_1" enable-background="new 0 0 511.538 511.538" height="512" viewBox="0 0 511.538 511.538" width="512" xmlns="http://www.w3.org/2000/svg"><g><g><path d="m283.157 159.157-24.517 20.572c-6.235 5.231-7.048 14.526-1.816 20.761l30.045 35.806 47.094-39.517-30.044-35.806c-5.232-6.234-14.527-7.048-20.762-1.816z" fill="#d7d0d6"/><path d="m181.464 227.627-42.65-35.787 25.538-30.435c5.661-6.746 15.718-7.626 22.464-1.965l18.22 15.288c6.746 5.661 7.626 15.718 1.965 22.464z" fill="#d7d0d6"/><path d="m504.493 292.705c0 71.89-58.27 130.17-130.17 130.17-3.5 0-6.97-.14-10.39-.41-67.03-5.3-119.77-61.37-119.77-129.76s52.74-124.46 119.77-129.76c3.42-.27 6.89-.41 10.39-.41 71.9 0 130.17 58.28 130.17 130.17z" fill="#e41f2d"/><ellipse cx="363.933" cy="292.705" fill="#fd4755" rx="119.77" ry="129.76"/><path d="m473.353 292.705c0 54.69-44.34 99.02-99.03 99.02-7.13 0-14.09-.75-20.79-2.19-44.7-9.55-78.23-49.27-78.23-96.83s33.53-87.28 78.23-96.83c6.7-1.44 13.66-2.19 20.79-2.19 54.69 0 99.03 44.33 99.03 99.02z" fill="#baafb9"/><ellipse cx="353.533" cy="292.705" fill="#d7d0d6" rx="78.23" ry="96.83"/><path d="m262.907 136.012h-58.384c-12.948 0-23.444-10.496-23.444-23.444 0-12.948 10.496-23.444 23.444-23.444h58.384c12.948 0 23.444 10.496 23.444 23.444.001 12.948-10.496 23.444-23.444 23.444z" fill="#e5e1e5"/><path d="m215.113 267.935c0 57.33-46.48 103.8-103.81 103.8-3.77 0-7.5-.2-11.17-.6-52.08-5.57-92.64-49.65-92.64-103.2 0-53.56 40.56-97.64 92.64-103.21 3.67-.4 7.4-.6 11.17-.6 57.33 0 103.81 46.47 103.81 103.81z" fill="#e41f2d"/><path d="m192.763 267.935c0 53.55-40.55 97.63-92.63 103.2-52.08-5.57-92.64-49.65-92.64-103.2 0-53.56 40.56-97.64 92.64-103.21 52.08 5.57 92.63 49.65 92.63 103.21z" fill="#fd4755"/><path d="m182.683 267.935c0 39.42-31.96 71.37-71.38 71.37-6.09 0-12.01-.76-17.66-2.21-30.88-7.85-53.71-35.83-53.71-69.16s22.83-61.32 53.71-69.17c5.65-1.45 11.57-2.21 17.66-2.21 39.42 0 71.38 31.96 71.38 71.38z" fill="#baafb9"/><path d="m147.353 267.935c0 33.32-22.84 61.31-53.71 69.16-30.88-7.85-53.71-35.83-53.71-69.16s22.83-61.32 53.71-69.17c30.87 7.86 53.71 35.85 53.71 69.17z" fill="#d7d0d6"/><g fill="#e5e1e5"><circle cx="111.306" cy="267.931" r="23.018"/><circle cx="374.328" cy="292.705" r="44.667"/></g></g><g><path d="m476.785 384.555c46.339-51.636 46.336-132.062 0-183.699l6.47-6.47c6.839-6.841-3.766-17.445-10.607-10.607l-6.47 6.47c-39.862-35.774-98.565-45.229-147.584-23.452l-8.929-10.641c-6.116-7.289-16.518-9.912-25.352-6.342-4.771 1.928-8.597 5.801-12.488 9.064l-12.893-15.365c18.204.318 34.92-11.326 34.92-30.944 0-17.063-13.882-30.943-30.944-30.943-9.673 0-9.673 15 0 15 8.792 0 15.944 7.152 15.944 15.943 0 8.792-7.152 15.944-15.944 15.944h-58.384c-8.792 0-15.944-7.152-15.944-15.944 0-8.791 7.152-15.943 15.944-15.943h21.591c9.673 0 9.673-15 0-15h-21.591c-17.063 0-30.944 13.881-30.944 30.943 0 17.552 15.005 31.417 32.336 30.944l-10.913 13.006c-7.648-6.421-16.252-10.524-26.337-6.929-7.367 2.626-11.744 9.006-16.562 14.748-12.974-5.121-26.669-7.716-40.793-7.716-27.996 0-53.607 10.393-73.189 27.518-3.678-3.678-8.72-7.831-13.58-2.972-4.84 4.84-.703 9.905 2.973 13.58-17.124 19.579-27.515 45.189-27.515 73.183 0 27.423 10.206 53.282 27.526 73.173-3.681 3.682-7.852 8.726-2.984 13.592 4.84 4.839 9.903.703 13.578-2.973 10.059 8.827 21.773 15.929 34.773 20.709 3.889 1.434 8.198-.563 9.627-4.451 1.43-3.887-.563-8.197-4.451-9.627-37.723-13.871-63.069-50.209-63.069-90.423 0-53.105 43.204-96.311 96.31-96.311 52.514 0 96.301 43.835 96.301 96.311 0 53.105-43.2 96.311-96.301 96.311-4.143 0-7.5 3.357-7.5 7.5s3.357 7.5 7.5 7.5c27.993 0 53.603-10.393 73.183-27.518 3.678 3.679 8.718 7.83 13.577 2.972 4.841-4.84.704-9.903-2.971-13.579 17.122-19.581 27.512-45.191 27.512-73.186 0-20.699-5.663-40.673-16.394-58.134 4.509-5.371 9.771-10.503 11.421-17.562 2.575-11.01-3.156-19.363-11.148-26.073l19.006-22.65h13.854l20.98 25.003c-4.312 3.616-9.128 6.962-11.827 12.039-4.209 7.918-3.193 17.88 2.579 24.76l8.943 10.655c-15.304 22.717-23.369 49.12-23.369 76.739 0 35.261 13.333 67.464 35.215 91.846l-6.471 6.471c-6.839 6.841 3.765 17.445 10.607 10.607l6.471-6.471c51.636 46.334 132.061 46.337 183.697.001l6.47 6.47c6.842 6.837 17.446-3.766 10.607-10.607zm-306.69-218.325c2.997-3.57 8.334-4.038 11.899-1.047l18.222 15.297c6.534 5.474.964 11.988-2.985 16.692-8.657-10.516-19.291-19.454-31.146-26.162zm122.522-3.022c2.106 0 4.202.975 5.558 2.59l6.721 8.009c-13.416 7.863-25.523 18.037-35.587 29.891l-6.735-8.024c-2.567-3.06-2.169-7.638.882-10.2l24.532-20.573c1.311-1.105 2.935-1.693 4.629-1.693zm-40.96 129.5c0-66.824 55.818-122.675 122.675-122.675 67.638 0 122.665 55.031 122.665 122.675 0 67.637-55.027 122.664-122.665 122.664-67.644.001-122.675-55.027-122.675-122.664z"/><path d="m374.328 186.183c-58.736 0-106.521 47.786-106.521 106.522s47.785 106.521 106.521 106.521 106.522-47.784 106.522-106.52-47.786-106.523-106.522-106.523zm0 198.044c-50.465 0-91.521-41.057-91.521-91.521 0-50.466 41.057-91.522 91.521-91.522s91.521 41.057 91.521 91.522c.001 50.464-41.056 91.521-91.521 91.521z"/><path d="m374.328 240.539c-28.765 0-52.167 23.402-52.167 52.167s23.402 52.166 52.167 52.166c13.58 0 26.44-5.19 36.213-14.615 6.962-6.716-3.451-17.511-10.414-10.797-6.961 6.715-16.123 10.412-25.799 10.412-20.494 0-37.167-16.673-37.167-37.166 0-20.494 16.673-37.167 37.167-37.167s37.167 16.673 37.167 37.167c0 9.673 15 9.673 15 0 0-28.765-23.402-52.167-52.167-52.167z"/><path d="m190.183 267.931c0-43.493-35.384-78.877-78.877-78.877s-78.877 35.384-78.877 78.877c0 43.492 35.384 78.876 78.877 78.876s78.877-35.384 78.877-78.876zm-142.754 0c0-35.222 28.655-63.877 63.877-63.877s63.877 28.655 63.877 63.877-28.655 63.876-63.877 63.876-63.877-28.654-63.877-63.876z"/><path d="m141.823 267.931c0-16.827-13.69-30.518-30.518-30.518s-30.518 13.69-30.518 30.518 13.69 30.518 30.518 30.518 30.518-13.691 30.518-30.518zm-46.035 0c0-8.557 6.961-15.518 15.518-15.518s15.518 6.961 15.518 15.518-6.961 15.518-15.518 15.518-15.518-6.961-15.518-15.518z"/></g></g></svg>